<?xml version="1.0" encoding="UTF-8"?>
<svg xmlns="http://www.w3.org/2000/svg" xmlns:xlink="http://www.w3.org/1999/xlink" width="40px" height="41px" viewBox="0 0 40 40" version="1.1">
<g id="surface1">
<path style=" stroke:none;fill-rule:nonzero;fill:rgb(0%,0%,0%);fill-opacity:1;" d="M 7.628906 0.460938 C 7.300781 0.542969 6.949219 0.867188 6.769531 1.246094 C 6.699219 1.398438 6.691406 1.644531 6.675781 3.203125 C 6.652344 5.78125 6.71875 6.304688 7.082031 6.554688 C 7.585938 6.902344 8.0625 6.960938 8.539062 6.730469 C 8.851562 6.582031 9.117188 6.300781 9.203125 6.035156 C 9.246094 5.894531 9.261719 5.246094 9.261719 3.609375 L 9.261719 1.375 L 9.152344 1.15625 C 8.894531 0.640625 8.191406 0.320312 7.628906 0.460938 Z M 7.628906 0.460938 "/>
<path style=" stroke:none;fill-rule:nonzero;fill:rgb(0%,0%,0%);fill-opacity:1;" d="M 16.914062 0.480469 C 16.699219 0.542969 16.304688 0.898438 16.179688 1.132812 C 16.117188 1.257812 16.070312 1.472656 16.042969 1.765625 C 15.953125 2.746094 16.023438 5.699219 16.144531 6.113281 C 16.265625 6.523438 16.796875 6.867188 17.308594 6.867188 C 17.800781 6.863281 18.265625 6.585938 18.484375 6.167969 C 18.570312 6.011719 18.589844 5.847656 18.628906 4.980469 C 18.652344 4.433594 18.667969 3.414062 18.65625 2.722656 L 18.644531 1.464844 L 18.476562 1.167969 C 18.136719 0.558594 17.523438 0.289062 16.914062 0.480469 Z M 16.914062 0.480469 "/>
<path style=" stroke:none;fill-rule:nonzero;fill:rgb(0%,0%,0%);fill-opacity:1;" d="M 26.265625 0.488281 C 25.855469 0.628906 25.472656 1.09375 25.40625 1.527344 C 25.351562 1.851562 25.371094 5.273438 25.429688 5.695312 C 25.496094 6.21875 25.605469 6.429688 25.914062 6.628906 C 26.242188 6.84375 26.578125 6.914062 26.929688 6.84375 C 27.238281 6.78125 27.59375 6.558594 27.746094 6.335938 C 27.964844 6.019531 27.972656 5.917969 27.976562 3.609375 L 27.976562 1.421875 L 27.847656 1.1875 C 27.515625 0.566406 26.863281 0.28125 26.265625 0.488281 Z M 26.265625 0.488281 "/>
<path style=" stroke:none;fill-rule:nonzero;fill:rgb(0%,0%,0%);fill-opacity:1;" d="M 10.652344 3.820312 C 10.632812 4.289062 10.617188 4.953125 10.617188 5.300781 C 10.617188 5.652344 10.59375 6.0625 10.570312 6.214844 C 10.4375 7.019531 9.675781 7.824219 8.761719 8.128906 C 8.234375 8.300781 7.136719 8.175781 6.625 7.882812 C 6.125 7.597656 5.839844 7.289062 5.546875 6.703125 C 5.328125 6.277344 5.296875 5.976562 5.289062 4.289062 C 5.285156 3.609375 5.277344 3.042969 5.261719 3.03125 C 5.210938 2.984375 4.234375 3.128906 3.828125 3.238281 C 2.8125 3.527344 1.777344 4.261719 1.015625 5.222656 C 0.546875 5.820312 0.1875 6.625 0.0859375 7.285156 C 0.0390625 7.621094 0.0234375 9.929688 0.0234375 19.019531 C 0.0234375 30.78125 0.0351562 31.316406 0.21875 31.945312 C 0.324219 32.285156 0.722656 33.058594 0.984375 33.421875 C 1.449219 34.0625 2.246094 34.730469 3 35.101562 C 3.691406 35.441406 3.996094 35.519531 4.78125 35.566406 C 5.175781 35.597656 9.078125 35.628906 13.441406 35.648438 L 21.390625 35.675781 L 21.214844 35.339844 C 20.964844 34.855469 20.652344 34.082031 20.476562 33.527344 L 20.324219 33.054688 L 16.628906 33.054688 C 14.59375 33.054688 11.035156 33.039062 8.714844 33.027344 L 4.5 33 L 4.191406 32.839844 C 3.609375 32.542969 3.167969 32.113281 2.851562 31.53125 L 2.675781 31.214844 L 2.652344 22.332031 L 2.632812 13.453125 L 32.046875 13.453125 L 32.046875 20.054688 L 32.417969 20.105469 C 32.824219 20.164062 33.84375 20.417969 34.304688 20.578125 C 34.460938 20.628906 34.617188 20.671875 34.652344 20.671875 C 34.714844 20.671875 34.71875 19.882812 34.691406 14.882812 C 34.660156 8.890625 34.628906 7.527344 34.5 6.9375 C 34.40625 6.484375 34.003906 5.675781 33.632812 5.191406 C 33.078125 4.460938 32.296875 3.84375 31.492188 3.496094 C 30.980469 3.277344 30.199219 3.078125 29.703125 3.039062 L 29.339844 3.011719 L 29.308594 6.316406 L 29.105469 6.722656 C 28.746094 7.425781 28.175781 7.914062 27.484375 8.109375 C 27.066406 8.230469 26.375 8.238281 25.953125 8.128906 C 25.242188 7.941406 24.617188 7.425781 24.269531 6.726562 C 24.039062 6.265625 24.003906 5.960938 24 4.246094 L 24 2.980469 L 22.015625 2.988281 L 20.023438 3.003906 L 19.996094 4.4375 C 19.976562 5.226562 19.949219 6.003906 19.929688 6.164062 C 19.84375 6.964844 19.089844 7.789062 18.125 8.132812 C 17.867188 8.226562 17.058594 8.21875 16.632812 8.125 C 15.941406 7.964844 15.285156 7.460938 14.9375 6.8125 C 14.71875 6.402344 14.714844 6.363281 14.675781 4.445312 L 14.644531 3.003906 L 12.660156 2.988281 L 10.679688 2.980469 Z M 10.652344 3.820312 "/>
<path style=" stroke:none;fill-rule:nonzero;fill:rgb(0%,0%,0%);fill-opacity:1;" d="M 7.636719 16.148438 C 7.304688 16.234375 7 16.488281 6.796875 16.871094 C 6.710938 17.035156 6.691406 17.15625 6.675781 17.765625 C 6.652344 18.5625 6.71875 19.070312 6.871094 19.339844 C 6.996094 19.5625 7.3125 19.808594 7.5625 19.878906 C 7.796875 19.941406 10.824219 19.941406 11.058594 19.878906 C 11.277344 19.820312 11.605469 19.578125 11.746094 19.375 C 11.804688 19.292969 11.867188 19.101562 11.890625 18.957031 C 11.953125 18.542969 11.933594 17.234375 11.867188 16.964844 C 11.785156 16.652344 11.585938 16.425781 11.246094 16.261719 L 10.976562 16.132812 L 9.382812 16.121094 C 8.503906 16.117188 7.71875 16.132812 7.636719 16.148438 Z M 7.636719 16.148438 "/>
<path style=" stroke:none;fill-rule:nonzero;fill:rgb(0%,0%,0%);fill-opacity:1;" d="M 15.65625 16.148438 C 15.347656 16.210938 15.019531 16.5 14.824219 16.867188 C 14.722656 17.058594 14.703125 17.183594 14.679688 17.660156 C 14.628906 18.792969 14.785156 19.386719 15.210938 19.6875 C 15.539062 19.917969 15.6875 19.929688 17.453125 19.917969 C 19.265625 19.902344 19.242188 19.902344 19.613281 19.546875 C 19.894531 19.289062 19.929688 19.121094 19.929688 18.015625 C 19.929688 16.910156 19.886719 16.730469 19.5625 16.460938 C 19.160156 16.125 19.199219 16.132812 17.429688 16.121094 C 16.550781 16.117188 15.757812 16.132812 15.65625 16.148438 Z M 15.65625 16.148438 "/>
<path style=" stroke:none;fill-rule:nonzero;fill:rgb(0%,0%,0%);fill-opacity:1;" d="M 23.691406 16.148438 C 23.453125 16.210938 23.261719 16.328125 23.078125 16.53125 C 22.746094 16.878906 22.714844 17.015625 22.710938 17.9375 C 22.703125 19.121094 22.828125 19.460938 23.371094 19.777344 L 23.59375 19.902344 L 27.117188 19.902344 L 27.34375 19.777344 C 27.652344 19.59375 27.84375 19.351562 27.914062 19.046875 C 28 18.644531 27.984375 17.261719 27.886719 16.9375 C 27.796875 16.628906 27.585938 16.402344 27.242188 16.238281 C 27.027344 16.136719 26.984375 16.132812 25.429688 16.121094 C 24.550781 16.117188 23.769531 16.132812 23.691406 16.148438 Z M 23.691406 16.148438 "/>
<path style=" stroke:none;fill-rule:nonzero;fill:rgb(0%,0%,0%);fill-opacity:1;" d="M 7.703125 21.367188 C 7.246094 21.449219 6.824219 21.875 6.710938 22.371094 C 6.671875 22.53125 6.660156 22.882812 6.675781 23.402344 C 6.703125 24.3125 6.78125 24.5625 7.105469 24.835938 C 7.484375 25.152344 7.503906 25.160156 8.953125 25.175781 C 9.671875 25.1875 10.460938 25.171875 10.703125 25.148438 C 11.101562 25.105469 11.175781 25.082031 11.398438 24.933594 C 11.738281 24.707031 11.847656 24.496094 11.914062 23.964844 C 11.964844 23.488281 11.933594 22.425781 11.851562 22.140625 C 11.785156 21.898438 11.476562 21.585938 11.175781 21.457031 C 10.933594 21.351562 10.886719 21.351562 9.429688 21.339844 C 8.605469 21.332031 7.828125 21.34375 7.703125 21.367188 Z M 7.703125 21.367188 "/>
<path style=" stroke:none;fill-rule:nonzero;fill:rgb(0%,0%,0%);fill-opacity:1;" d="M 15.761719 21.363281 C 15.644531 21.382812 15.484375 21.429688 15.40625 21.472656 C 15.203125 21.578125 14.933594 21.867188 14.804688 22.113281 C 14.699219 22.308594 14.695312 22.375 14.695312 23.183594 C 14.695312 24.421875 14.820312 24.742188 15.417969 25.03125 L 15.691406 25.164062 L 17.332031 25.164062 C 18.90625 25.164062 18.984375 25.160156 19.195312 25.066406 C 19.507812 24.921875 19.785156 24.640625 19.863281 24.394531 C 19.953125 24.109375 19.953125 22.40625 19.867188 22.121094 C 19.789062 21.875 19.496094 21.578125 19.195312 21.449219 C 18.992188 21.355469 18.890625 21.351562 17.476562 21.339844 C 16.652344 21.335938 15.882812 21.34375 15.761719 21.363281 Z M 15.761719 21.363281 "/>
<path style=" stroke:none;fill-rule:nonzero;fill:rgb(0%,0%,0%);fill-opacity:1;" d="M 29.789062 21.367188 C 27.996094 21.570312 26.320312 22.226562 24.976562 23.253906 C 24.578125 23.5625 23.8125 24.304688 23.382812 24.8125 C 22.617188 25.71875 21.929688 27.105469 21.644531 28.320312 C 21.417969 29.269531 21.355469 30.792969 21.503906 31.800781 C 21.722656 33.367188 22.308594 34.707031 23.328125 35.988281 C 23.738281 36.503906 24.585938 37.332031 25.09375 37.71875 C 26.65625 38.890625 28.613281 39.523438 30.679688 39.523438 C 32.21875 39.523438 33.542969 39.21875 34.898438 38.558594 C 36.59375 37.722656 38.042969 36.316406 38.949219 34.636719 C 39.320312 33.9375 39.492188 33.503906 39.691406 32.761719 C 40.40625 30.070312 39.855469 27.265625 38.1875 25.046875 C 37.78125 24.507812 36.648438 23.417969 36.09375 23.035156 C 34.914062 22.214844 33.601562 21.683594 32.21875 21.457031 C 31.5625 21.351562 30.355469 21.308594 29.789062 21.367188 Z M 32.144531 24.039062 C 34.769531 24.640625 36.800781 26.683594 37.269531 29.207031 C 37.371094 29.734375 37.382812 31.011719 37.289062 31.539062 C 37.066406 32.882812 36.421875 34.085938 35.429688 35.054688 C 34.589844 35.871094 33.632812 36.429688 32.558594 36.726562 C 31.820312 36.933594 31.34375 36.984375 30.40625 36.949219 C 29.710938 36.933594 29.519531 36.902344 29.046875 36.789062 C 26.457031 36.121094 24.59375 34.148438 24.109375 31.550781 C 24.003906 30.980469 24.003906 29.878906 24.109375 29.277344 C 24.367188 27.816406 25.203125 26.402344 26.367188 25.464844 C 27.457031 24.582031 28.453125 24.148438 29.832031 23.957031 C 30.160156 23.910156 31.84375 23.972656 32.144531 24.039062 Z M 32.144531 24.039062 "/>
<path style=" stroke:none;fill-rule:nonzero;fill:rgb(0%,0%,0%);fill-opacity:1;" d="M 30.441406 25.28125 C 30.332031 25.300781 30.1875 25.347656 30.109375 25.390625 C 29.921875 25.484375 29.648438 25.777344 29.519531 26.023438 C 29.40625 26.234375 29.40625 26.246094 29.390625 28.019531 C 29.367188 30.652344 29.429688 31.117188 29.855469 31.421875 C 30.230469 31.679688 30.214844 31.679688 32.667969 31.679688 C 33.910156 31.679688 35.007812 31.660156 35.105469 31.644531 C 35.332031 31.597656 35.777344 31.207031 35.871094 30.96875 C 35.996094 30.664062 36.015625 30.386719 35.933594 30.113281 C 35.777344 29.570312 35.394531 29.253906 34.851562 29.207031 C 34.6875 29.195312 34.460938 29.175781 34.355469 29.167969 C 34.253906 29.15625 33.71875 29.148438 33.167969 29.144531 C 32.617188 29.144531 32.144531 29.125 32.113281 29.105469 C 32.078125 29.082031 32.042969 28.617188 32.007812 27.652344 C 31.980469 26.789062 31.9375 26.167969 31.898438 26.0625 C 31.808594 25.792969 31.59375 25.578125 31.269531 25.421875 C 30.929688 25.265625 30.71875 25.226562 30.441406 25.28125 Z M 30.441406 25.28125 "/>
<path style=" stroke:none;fill-rule:nonzero;fill:rgb(0%,0%,0%);fill-opacity:1;" d="M 7.832031 26.578125 C 7.472656 26.625 7.308594 26.707031 7.050781 26.980469 C 6.714844 27.335938 6.691406 27.421875 6.691406 28.375 C 6.691406 29.351562 6.71875 29.578125 6.890625 29.828125 C 7.0625 30.09375 7.464844 30.339844 7.777344 30.378906 C 7.914062 30.394531 8.699219 30.398438 9.523438 30.390625 L 11.023438 30.378906 L 11.28125 30.238281 C 11.59375 30.066406 11.785156 29.847656 11.855469 29.566406 C 12 29.019531 11.953125 27.503906 11.785156 27.1875 C 11.695312 27.015625 11.40625 26.773438 11.152344 26.667969 C 10.960938 26.582031 10.804688 26.574219 9.527344 26.558594 C 8.753906 26.550781 7.992188 26.558594 7.832031 26.578125 Z M 7.832031 26.578125 "/>
<path style=" stroke:none;fill-rule:nonzero;fill:rgb(0%,0%,0%);fill-opacity:1;" d="M 15.90625 26.578125 C 15.5 26.617188 15.289062 26.714844 15.042969 26.988281 C 14.730469 27.339844 14.691406 27.492188 14.695312 28.421875 C 14.695312 29.082031 14.714844 29.316406 14.777344 29.53125 C 14.875 29.855469 15.109375 30.121094 15.417969 30.269531 C 15.636719 30.378906 15.660156 30.378906 17.332031 30.378906 C 19.214844 30.378906 19.191406 30.382812 19.5625 30.050781 C 19.886719 29.765625 19.929688 29.589844 19.929688 28.515625 C 19.929688 27.445312 19.886719 27.234375 19.628906 26.972656 C 19.535156 26.878906 19.339844 26.75 19.195312 26.683594 C 18.933594 26.5625 18.914062 26.5625 17.59375 26.554688 C 16.863281 26.550781 16.101562 26.558594 15.90625 26.578125 Z M 15.90625 26.578125 "/>
</g>
</svg>
