<?xml version="1.0" standalone="no"?>
<!DOCTYPE svg PUBLIC "-//W3C//DTD SVG 20010904//EN"
 "http://www.w3.org/TR/2001/REC-SVG-20010904/DTD/svg10.dtd">
<svg version="1.0" xmlns="http://www.w3.org/2000/svg"
 width="64.000000pt" height="64.000000pt" viewBox="0 0 64.000000 64.000000"
 preserveAspectRatio="xMidYMid meet">

<g transform="translate(0.000000,64.000000) scale(0.100000,-0.100000)"
fill="#000000" stroke="none">
<path d="M236 627 c-22 -7 -41 -18 -44 -26 -3 -8 -1 -11 4 -8 5 3 28 10 52 16
23 7 42 16 42 21 0 12 -4 12 -54 -3z"/>
<path d="M350 631 c0 -6 19 -15 43 -22 23 -6 45 -13 50 -16 4 -2 7 1 7 7 0 11
-24 22 -72 34 -16 4 -28 2 -28 -3z"/>
<path d="M95 545 c-19 -20 -32 -41 -29 -47 4 -7 13 -2 24 12 9 13 27 31 40 40
14 11 19 20 12 24 -6 3 -27 -10 -47 -29z"/>
<path d="M497 572 c-5 -9 69 -82 77 -75 8 8 -22 50 -49 67 -13 9 -26 12 -28 8z"/>
<path d="M21 428 c-16 -45 -21 -78 -12 -78 6 0 15 19 22 43 6 23 13 45 16 50
2 4 -1 7 -7 7 -6 0 -14 -10 -19 -22z"/>
<path d="M595 433 c4 -10 11 -33 17 -50 11 -40 31 -45 22 -5 -12 49 -23 72
-35 72 -7 0 -8 -7 -4 -17z"/>
<path d="M6 263 c12 -49 23 -73 34 -73 6 0 9 3 7 8 -3 4 -10 26 -16 50 -13 46
-36 60 -25 15z"/>
<path d="M609 248 c-6 -24 -13 -46 -16 -50 -2 -5 1 -8 7 -8 11 0 22 24 34 73
11 45 -12 31 -25 -15z"/>
<path d="M66 142 c-9 -14 62 -85 76 -76 7 4 2 13 -12 24 -13 9 -31 27 -40 40
-11 14 -20 19 -24 12z"/>
<path d="M528 109 c-20 -20 -34 -40 -31 -43 8 -8 50 22 67 49 25 39 4 35 -36
-6z"/>
<path d="M190 41 c0 -12 23 -23 73 -35 39 -9 34 11 -5 22 -18 6 -41 13 -50 17
-11 4 -18 3 -18 -4z"/>
<path d="M398 33 c-51 -15 -68 -38 -20 -27 48 12 72 23 72 34 0 5 -1 10 -2 9
-2 -1 -24 -8 -50 -16z"/>
</g>
</svg>
