<?xml version="1.0" standalone="no"?>
<!DOCTYPE svg PUBLIC "-//W3C//DTD SVG 20010904//EN"
 "http://www.w3.org/TR/2001/REC-SVG-20010904/DTD/svg10.dtd">
<svg version="1.0" xmlns="http://www.w3.org/2000/svg"
 width="652.000000pt" height="383.000000pt" viewBox="0 0 652.000000 383.000000"
 preserveAspectRatio="xMidYMid meet">

<g transform="translate(0.000000,383.000000) scale(0.100000,-0.100000)"
fill="#000000" stroke="none">
<path d="M3122 3463 l-33 -4 6 -67 c3 -37 8 -88 11 -114 l6 -48 141 0 c286 -1
498 -65 747 -228 78 -51 242 -204 298 -277 12 -17 32 -43 45 -60 12 -16 29
-43 37 -60 8 -16 18 -32 21 -35 12 -10 88 -178 109 -240 54 -163 78 -371 61
-527 -16 -139 -28 -201 -59 -293 -28 -85 -101 -243 -113 -248 -5 -2 -9 -8 -9
-14 0 -10 -59 -101 -97 -150 -56 -71 -219 -222 -293 -270 -249 -163 -461 -227
-747 -228 l-141 0 -6 -68 c-4 -37 -9 -88 -11 -113 l-5 -46 46 -7 c176 -24 510
24 679 98 17 7 41 18 55 23 214 87 448 263 590 445 23 29 50 64 61 78 41 52
86 128 123 205 21 44 42 88 47 97 22 43 62 172 86 273 23 99 26 131 26 325 1
234 -14 341 -69 495 -57 160 -140 321 -213 415 -11 14 -38 49 -61 78 -141 182
-381 362 -590 444 -14 6 -34 15 -44 20 -22 12 -163 55 -221 69 -132 30 -370
46 -483 32z"/>
<path d="M2700 3366 c-14 -8 -36 -18 -50 -23 -46 -18 -175 -85 -192 -100 -16
-14 -16 -18 -1 -47 9 -17 28 -49 43 -71 15 -22 35 -53 44 -68 l17 -28 42 26
c23 14 58 33 77 41 19 9 43 20 52 25 10 5 23 9 30 9 7 0 23 8 36 18 l23 18
-26 75 c-14 40 -30 89 -36 107 -11 35 -21 38 -59 18z"/>
<path d="M2119 2971 c-19 -21 -53 -63 -75 -92 -21 -30 -42 -56 -47 -57 -4 -2
-17 -21 -27 -43 l-20 -39 32 -19 c18 -11 38 -24 43 -28 6 -5 34 -23 64 -41 59
-37 61 -36 104 31 21 33 38 54 89 111 21 22 38 46 38 51 0 9 -152 165 -161
165 -2 0 -20 -18 -40 -39z"/>
<path d="M3875 2457 c-5 -7 -40 -46 -76 -87 -36 -41 -74 -85 -85 -98 -10 -13
-30 -36 -44 -51 -14 -15 -47 -53 -75 -85 -27 -33 -59 -68 -70 -80 -11 -12 -47
-53 -80 -91 -33 -39 -68 -77 -77 -86 -10 -9 -18 -19 -18 -22 0 -3 -12 -18 -27
-34 -44 -46 -123 -134 -123 -137 0 -2 -17 -21 -38 -44 l-39 -42 -27 25 c-15
14 -31 25 -36 25 -4 0 -10 3 -12 8 -1 4 -50 45 -108 90 -117 93 -159 128 -239
195 -12 9 -26 17 -31 17 -6 0 -10 4 -10 10 0 5 -10 14 -21 21 -24 12 -35 3
-94 -75 -17 -22 -40 -51 -53 -65 l-23 -25 28 -26 c15 -14 46 -39 68 -55 22
-17 67 -52 101 -80 33 -27 77 -63 99 -80 21 -16 46 -38 56 -47 11 -10 22 -18
25 -18 3 0 11 -6 18 -12 7 -7 31 -26 52 -43 21 -16 46 -37 54 -45 26 -24 178
-140 184 -140 8 0 32 25 96 100 30 36 57 67 60 70 7 6 136 155 160 184 8 10
26 30 40 45 14 14 50 55 80 91 30 36 66 77 80 91 14 15 34 38 45 51 30 38 106
126 135 157 14 14 50 55 80 91 30 36 66 77 80 91 44 47 59 68 51 71 -8 3 -126
106 -157 136 -15 15 -16 15 -29 -1z"/>
<path d="M1782 2393 c-19 -56 -43 -163 -59 -264 l-5 -35 90 -12 c49 -7 104
-15 121 -18 31 -6 31 -6 31 35 0 44 13 105 40 191 l18 54 -37 16 c-20 9 -56
22 -81 29 -25 7 -57 19 -72 27 -34 18 -31 20 -46 -23z"/>
<path d="M1855 1754 c-38 -7 -85 -13 -102 -13 -37 -1 -40 -11 -23 -89 6 -26
15 -69 21 -97 22 -102 43 -155 59 -149 8 4 44 17 80 30 36 12 79 29 97 36 l31
13 -18 55 c-27 86 -40 147 -40 190 0 46 3 45 -105 24z"/>
<path d="M2110 1192 c-14 -9 -26 -20 -28 -24 -2 -5 -8 -8 -14 -8 -5 0 -24 -11
-42 -25 -18 -14 -37 -25 -42 -25 -6 0 -15 -5 -21 -11 -13 -13 2 -52 29 -81 8
-7 31 -38 53 -68 22 -30 57 -72 78 -93 l39 -39 79 79 c43 43 79 83 79 88 0 6
-17 29 -38 51 -51 57 -68 78 -89 111 -23 36 -46 63 -53 62 -3 0 -16 -8 -30
-17z"/>
<path d="M2532 752 c-36 -60 -47 -77 -52 -82 -3 -3 -13 -19 -22 -36 -17 -30
-17 -32 0 -47 17 -15 146 -82 192 -100 14 -5 40 -16 58 -25 29 -14 35 -14 43
-1 5 7 9 21 9 30 0 8 4 19 9 25 7 8 19 41 46 132 6 20 0 25 -52 48 -81 35
-103 45 -145 71 -50 31 -59 29 -86 -15z"/>
</g>
</svg>
