<?xml version="1.0" standalone="no"?>
<!DOCTYPE svg PUBLIC "-//W3C//DTD SVG 20010904//EN"
 "http://www.w3.org/TR/2001/REC-SVG-20010904/DTD/svg10.dtd">
<svg version="1.0" xmlns="http://www.w3.org/2000/svg"
 width="400.000000pt" height="400.000000pt" viewBox="0 0 400.000000 400.000000"
 preserveAspectRatio="xMidYMid meet">

<g transform="translate(0.000000,400.000000) scale(0.100000,-0.100000)"
fill="#000000" stroke="none">
<path d="M1805 3989 c-305 -29 -631 -145 -897 -318 -966 -630 -1197 -1935
-508 -2866 285 -385 734 -670 1205 -764 1007 -202 2013 403 2309 1389 138 462
98 987 -109 1419 -131 272 -300 494 -513 672 -422 353 -949 519 -1487 468z
m476 -273 c679 -112 1236 -626 1403 -1294 118 -472 37 -962 -224 -1362 -517
-789 -1549 -1032 -2348 -553 -133 79 -195 127 -311 238 -357 343 -542 781
-541 1282 1 571 318 1131 818 1446 221 139 473 227 737 257 105 12 357 4 466
-14z"/>
<path d="M2755 2671 c-16 -10 -262 -251 -545 -535 l-515 -516 -216 216 c-159
158 -225 219 -253 228 -73 25 -146 -12 -166 -82 -20 -73 -14 -80 274 -370 149
-151 284 -280 300 -289 19 -10 45 -14 74 -10 44 5 55 15 629 588 321 321 589
592 594 602 16 27 13 90 -4 124 -30 57 -116 79 -172 44z"/>
</g>
</svg>
