<?xml version="1.0" standalone="no"?>
<!DOCTYPE svg PUBLIC "-//W3C//DTD SVG 20010904//EN"
 "http://www.w3.org/TR/2001/REC-SVG-20010904/DTD/svg10.dtd">
<svg version="1.0" xmlns="http://www.w3.org/2000/svg"
 width="920.000000pt" height="920.000000pt" viewBox="0 0 920.000000 920.000000"
 preserveAspectRatio="xMidYMid meet">

<g transform="translate(0.000000,920.000000) scale(0.100000,-0.100000)"
fill="#000000" stroke="none">
<path d="M3990 6128 c-326 -21 -612 -151 -851 -388 -191 -190 -308 -410 -371
-695 -8 -38 -13 -129 -13 -245 1 -216 17 -310 84 -480 137 -351 408 -623 757
-760 142 -55 264 -81 424 -87 273 -11 516 48 735 181 90 54 90 55 104 33 27
-41 946 -958 975 -974 42 -22 123 -20 178 5 58 25 124 91 150 149 23 53 26
140 4 180 -15 28 -946 960 -978 978 -16 9 -14 15 18 65 93 142 171 359 195
538 19 144 7 355 -29 494 -63 242 -180 447 -355 622 -277 276 -635 409 -1027
384z m304 -508 c298 -77 538 -322 612 -626 21 -84 23 -282 5 -369 -16 -78 -74
-215 -120 -285 -174 -266 -504 -423 -805 -382 -111 15 -254 63 -341 115 -78
47 -197 155 -250 227 -52 71 -112 198 -137 292 -28 105 -30 296 -5 401 67 272
272 505 532 602 150 57 350 66 509 25z"/>
</g>
</svg>
